<svg width="64" height="28" viewBox="0 0 64 28" fill="none" xmlns="http://www.w3.org/2000/svg">
<path d="M0 2V26H2V28H62V26H64V2H62V0H2V2H0Z" fill="#705848"/>
<g style="mix-blend-mode:hard-light">
<rect x="2" width="60" height="2" fill="#A8A878"/>
<rect y="2" width="2" height="2" fill="#A8A878"/>
<rect x="62" y="2" width="2" height="2" fill="#A8A878"/>
</g>
<rect x="62" y="28" width="60" height="2" transform="rotate(180 62 28)" fill="#484038"/>
<rect x="64" y="26" width="2" height="2" transform="rotate(180 64 26)" fill="#484038"/>
<rect x="2" y="26" width="2" height="2" transform="rotate(180 2 26)" fill="#484038"/>
<g filter="url(#filter0_ddd_19_907)">
<path d="M41 7H43V21H41V7Z" fill="white"/>
<path d="M47 15H49V19H47V15Z" fill="white"/>
<path d="M47 19V21H43V19H47Z" fill="white"/>
<path d="M47 9H49V13H47V9Z" fill="white"/>
<path d="M43 7H47V9H43V7Z" fill="white"/>
<path d="M43 13H47V15H43V13Z" fill="white"/>
<path d="M51 7H53V21H51V7Z" fill="white"/>
<path d="M57 15H59V21H57V15Z" fill="white"/>
<path d="M57 9H59V13H57V9Z" fill="white"/>
<path d="M53 7H57V9H53V7Z" fill="white"/>
<path d="M53 13H57V15H53V13Z" fill="white"/>
</g>
<g filter="url(#filter1_ddd_19_907)">
<path d="M21 7H23V21H21V7Z" fill="white"/>
<path d="M27 7H29V21H27V7Z" fill="white"/>
<path d="M23 9H25V13H23V9Z" fill="white"/>
<path d="M25 13H27V17H25V13Z" fill="white"/>
</g>
<g filter="url(#filter2_ddd_19_907)">
<path d="M5 9H7V21H5V9Z" fill="white"/>
<path d="M3 7H9V9H3V7Z" fill="white"/>
<path d="M11 13H17V15H11V13Z" fill="white"/>
<path d="M13 9L13 19H11L11 9L13 9Z" fill="white"/>
<path d="M11 19H19V21H11L11 19Z" fill="white"/>
<path d="M11 7H19V9L11 9L11 7Z" fill="white"/>
<path d="M31 13H37V15H31V13Z" fill="white"/>
<path d="M33 9L33 19H31L31 9L33 9Z" fill="white"/>
<path d="M31 19H39V21H31L31 19Z" fill="white"/>
<path d="M31 7H39V9L31 9L31 7Z" fill="white"/>
</g>
<defs>
<filter id="filter0_ddd_19_907" x="41" y="7" width="20" height="16" filterUnits="userSpaceOnUse" color-interpolation-filters="sRGB">
<feFlood flood-opacity="0" result="BackgroundImageFix"/>
<feColorMatrix in="SourceAlpha" type="matrix" values="0 0 0 0 0 0 0 0 0 0 0 0 0 0 0 0 0 0 127 0" result="hardAlpha"/>
<feOffset dy="2"/>
<feComposite in2="hardAlpha" operator="out"/>
<feColorMatrix type="matrix" values="0 0 0 0 0.501961 0 0 0 0 0.470588 0 0 0 0 0.439216 0 0 0 1 0"/>
<feBlend mode="normal" in2="BackgroundImageFix" result="effect1_dropShadow_19_907"/>
<feColorMatrix in="SourceAlpha" type="matrix" values="0 0 0 0 0 0 0 0 0 0 0 0 0 0 0 0 0 0 127 0" result="hardAlpha"/>
<feOffset dx="2"/>
<feComposite in2="hardAlpha" operator="out"/>
<feColorMatrix type="matrix" values="0 0 0 0 0.501961 0 0 0 0 0.470588 0 0 0 0 0.439216 0 0 0 1 0"/>
<feBlend mode="normal" in2="effect1_dropShadow_19_907" result="effect2_dropShadow_19_907"/>
<feColorMatrix in="SourceAlpha" type="matrix" values="0 0 0 0 0 0 0 0 0 0 0 0 0 0 0 0 0 0 127 0" result="hardAlpha"/>
<feOffset dx="2" dy="2"/>
<feComposite in2="hardAlpha" operator="out"/>
<feColorMatrix type="matrix" values="0 0 0 0 0.501961 0 0 0 0 0.470588 0 0 0 0 0.439216 0 0 0 1 0"/>
<feBlend mode="normal" in2="effect2_dropShadow_19_907" result="effect3_dropShadow_19_907"/>
<feBlend mode="normal" in="SourceGraphic" in2="effect3_dropShadow_19_907" result="shape"/>
</filter>
<filter id="filter1_ddd_19_907" x="21" y="7" width="10" height="16" filterUnits="userSpaceOnUse" color-interpolation-filters="sRGB">
<feFlood flood-opacity="0" result="BackgroundImageFix"/>
<feColorMatrix in="SourceAlpha" type="matrix" values="0 0 0 0 0 0 0 0 0 0 0 0 0 0 0 0 0 0 127 0" result="hardAlpha"/>
<feOffset dy="2"/>
<feComposite in2="hardAlpha" operator="out"/>
<feColorMatrix type="matrix" values="0 0 0 0 0.501961 0 0 0 0 0.470588 0 0 0 0 0.439216 0 0 0 1 0"/>
<feBlend mode="normal" in2="BackgroundImageFix" result="effect1_dropShadow_19_907"/>
<feColorMatrix in="SourceAlpha" type="matrix" values="0 0 0 0 0 0 0 0 0 0 0 0 0 0 0 0 0 0 127 0" result="hardAlpha"/>
<feOffset dx="2"/>
<feComposite in2="hardAlpha" operator="out"/>
<feColorMatrix type="matrix" values="0 0 0 0 0.501961 0 0 0 0 0.470588 0 0 0 0 0.439216 0 0 0 1 0"/>
<feBlend mode="normal" in2="effect1_dropShadow_19_907" result="effect2_dropShadow_19_907"/>
<feColorMatrix in="SourceAlpha" type="matrix" values="0 0 0 0 0 0 0 0 0 0 0 0 0 0 0 0 0 0 127 0" result="hardAlpha"/>
<feOffset dx="2" dy="2"/>
<feComposite in2="hardAlpha" operator="out"/>
<feColorMatrix type="matrix" values="0 0 0 0 0.501961 0 0 0 0 0.470588 0 0 0 0 0.439216 0 0 0 1 0"/>
<feBlend mode="normal" in2="effect2_dropShadow_19_907" result="effect3_dropShadow_19_907"/>
<feBlend mode="normal" in="SourceGraphic" in2="effect3_dropShadow_19_907" result="shape"/>
</filter>
<filter id="filter2_ddd_19_907" x="3" y="7" width="38" height="16" filterUnits="userSpaceOnUse" color-interpolation-filters="sRGB">
<feFlood flood-opacity="0" result="BackgroundImageFix"/>
<feColorMatrix in="SourceAlpha" type="matrix" values="0 0 0 0 0 0 0 0 0 0 0 0 0 0 0 0 0 0 127 0" result="hardAlpha"/>
<feOffset dy="2"/>
<feComposite in2="hardAlpha" operator="out"/>
<feColorMatrix type="matrix" values="0 0 0 0 0.501961 0 0 0 0 0.470588 0 0 0 0 0.439216 0 0 0 1 0"/>
<feBlend mode="normal" in2="BackgroundImageFix" result="effect1_dropShadow_19_907"/>
<feColorMatrix in="SourceAlpha" type="matrix" values="0 0 0 0 0 0 0 0 0 0 0 0 0 0 0 0 0 0 127 0" result="hardAlpha"/>
<feOffset dx="2"/>
<feComposite in2="hardAlpha" operator="out"/>
<feColorMatrix type="matrix" values="0 0 0 0 0.501961 0 0 0 0 0.470588 0 0 0 0 0.439216 0 0 0 1 0"/>
<feBlend mode="normal" in2="effect1_dropShadow_19_907" result="effect2_dropShadow_19_907"/>
<feColorMatrix in="SourceAlpha" type="matrix" values="0 0 0 0 0 0 0 0 0 0 0 0 0 0 0 0 0 0 127 0" result="hardAlpha"/>
<feOffset dx="2" dy="2"/>
<feComposite in2="hardAlpha" operator="out"/>
<feColorMatrix type="matrix" values="0 0 0 0 0.501961 0 0 0 0 0.470588 0 0 0 0 0.439216 0 0 0 1 0"/>
<feBlend mode="normal" in2="effect2_dropShadow_19_907" result="effect3_dropShadow_19_907"/>
<feBlend mode="normal" in="SourceGraphic" in2="effect3_dropShadow_19_907" result="shape"/>
</filter>
</defs>
</svg>
