<svg width="64" height="28" viewBox="0 0 64 28" fill="none" xmlns="http://www.w3.org/2000/svg">
<path d="M0 2V26H2V28H62V26H64V2H62V0H2V2H0Z" fill="#F85888"/>
<g style="mix-blend-mode:hard-light">
<rect x="2" width="60" height="2" fill="white" fill-opacity="0.5"/>
<rect y="2" width="2" height="2" fill="white" fill-opacity="0.5"/>
<rect x="62" y="2" width="2" height="2" fill="white" fill-opacity="0.5"/>
</g>
<rect x="62" y="28" width="60" height="2" transform="rotate(180 62 28)" fill="black" fill-opacity="0.5"/>
<rect x="64" y="26" width="2" height="2" transform="rotate(180 64 26)" fill="black" fill-opacity="0.5"/>
<rect x="2" y="26" width="2" height="2" transform="rotate(180 2 26)" fill="black" fill-opacity="0.5"/>
<g filter="url(#filter0_ddd_19_913)">
<path d="M21 6H25V8H21V6Z" fill="white"/>
<path d="M19 8H21V12H19V8Z" fill="white"/>
<path d="M25 14H27V18H25V14Z" fill="white"/>
<path d="M25 8H27V10H25V8Z" fill="white"/>
<path d="M19 16H21V18H19V16Z" fill="white"/>
<path d="M21 12H25V14H21V12Z" fill="white"/>
<path d="M21 18H25V20H21V18Z" fill="white"/>
<path d="M11 6H15V8H11V6Z" fill="white"/>
<path d="M11 12H15V14H11V12Z" fill="white"/>
<path d="M15 8H17V12H15V8Z" fill="white"/>
<path d="M9 6H11V20H9V6Z" fill="white"/>
<path d="M33 6H35V14H33V6Z" fill="white"/>
<path d="M29 6H31V14H29V6Z" fill="white"/>
<path d="M31 14H33V20H31V14Z" fill="white"/>
<path d="M37 8H39V18H37V8Z" fill="white"/>
<path d="M39 18H43V20H39V18Z" fill="white"/>
<path d="M39 6H43V8H39V6Z" fill="white"/>
<path d="M43 14H45V18H43V14Z" fill="white"/>
<path d="M43 8H45V10H43V8Z" fill="white"/>
<path d="M47 6H49V20H47V6Z" fill="white"/>
<path d="M53 6H55V20H53V6Z" fill="white"/>
<path d="M48 12H54V14H48V12Z" fill="white"/>
</g>
<defs>
<filter id="filter0_ddd_19_913" x="9" y="6" width="48" height="16" filterUnits="userSpaceOnUse" color-interpolation-filters="sRGB">
<feFlood flood-opacity="0" result="BackgroundImageFix"/>
<feColorMatrix in="SourceAlpha" type="matrix" values="0 0 0 0 0 0 0 0 0 0 0 0 0 0 0 0 0 0 127 0" result="hardAlpha"/>
<feOffset dy="2"/>
<feComposite in2="hardAlpha" operator="out"/>
<feColorMatrix type="matrix" values="0 0 0 0 0.501961 0 0 0 0 0.470588 0 0 0 0 0.439216 0 0 0 1 0"/>
<feBlend mode="normal" in2="BackgroundImageFix" result="effect1_dropShadow_19_913"/>
<feColorMatrix in="SourceAlpha" type="matrix" values="0 0 0 0 0 0 0 0 0 0 0 0 0 0 0 0 0 0 127 0" result="hardAlpha"/>
<feOffset dx="2"/>
<feComposite in2="hardAlpha" operator="out"/>
<feColorMatrix type="matrix" values="0 0 0 0 0.501961 0 0 0 0 0.470588 0 0 0 0 0.439216 0 0 0 1 0"/>
<feBlend mode="normal" in2="effect1_dropShadow_19_913" result="effect2_dropShadow_19_913"/>
<feColorMatrix in="SourceAlpha" type="matrix" values="0 0 0 0 0 0 0 0 0 0 0 0 0 0 0 0 0 0 127 0" result="hardAlpha"/>
<feOffset dx="2" dy="2"/>
<feComposite in2="hardAlpha" operator="out"/>
<feColorMatrix type="matrix" values="0 0 0 0 0.501961 0 0 0 0 0.470588 0 0 0 0 0.439216 0 0 0 1 0"/>
<feBlend mode="normal" in2="effect2_dropShadow_19_913" result="effect3_dropShadow_19_913"/>
<feBlend mode="normal" in="SourceGraphic" in2="effect3_dropShadow_19_913" result="shape"/>
</filter>
</defs>
</svg>
