<svg width="64" height="28" viewBox="0 0 64 28" fill="none" xmlns="http://www.w3.org/2000/svg">
<path d="M0 2V26H2V28H62V26H64V2H62V0H2V2H0Z" fill="#B8A038"/>
<rect x="2" width="60" height="2" fill="#E0C068"/>
<rect y="2" width="2" height="2" fill="#E0C068"/>
<rect x="62" y="2" width="2" height="2" fill="#E0C068"/>
<rect x="62" y="28" width="60" height="2" transform="rotate(180 62 28)" fill="black" fill-opacity="0.5"/>
<rect x="64" y="26" width="2" height="2" transform="rotate(180 64 26)" fill="black" fill-opacity="0.5"/>
<rect x="2" y="26" width="2" height="2" transform="rotate(180 2 26)" fill="black" fill-opacity="0.5"/>
<g filter="url(#filter0_ddd_19_911)">
<path d="M8 7H10V21H8V7Z" fill="white"/>
<path d="M14 15H16V21H14V15Z" fill="white"/>
<path d="M14 9H16V13H14V9Z" fill="white"/>
<path d="M10 7H14V9H10V7Z" fill="white"/>
<path d="M10 13H14V15H10V13Z" fill="white"/>
<path d="M18 9H20V19H18V9Z" fill="white"/>
<path d="M20 19H24V21H20V19Z" fill="white"/>
<path d="M20 7H24V9H20V7Z" fill="white"/>
<path d="M24 9H26V19H24V9Z" fill="white"/>
<path d="M28 9H30V19H28V9Z" fill="white"/>
<path d="M30 19H34V21H30V19Z" fill="white"/>
<path d="M30 7H34V9H30V7Z" fill="white"/>
<path d="M34 15H36V19H34V15Z" fill="white"/>
<path d="M34 9H36V11H34V9Z" fill="white"/>
</g>
<g filter="url(#filter1_ddd_19_911)">
<path d="M38 7H40V21H38V7Z" fill="white"/>
<path d="M44 7H46V21H44V7Z" fill="white"/>
<path d="M39 13H45V15H39V13Z" fill="white"/>
<path d="M48 13H54V15H48V13Z" fill="white"/>
<path d="M50 9L50 19H48L48 9L50 9Z" fill="white"/>
<path d="M48 19H56V21H48L48 19Z" fill="white"/>
<path d="M48 7H56V9L48 9L48 7Z" fill="white"/>
</g>
<defs>
<filter id="filter0_ddd_19_911" x="8" y="7" width="30" height="16" filterUnits="userSpaceOnUse" color-interpolation-filters="sRGB">
<feFlood flood-opacity="0" result="BackgroundImageFix"/>
<feColorMatrix in="SourceAlpha" type="matrix" values="0 0 0 0 0 0 0 0 0 0 0 0 0 0 0 0 0 0 127 0" result="hardAlpha"/>
<feOffset dy="2"/>
<feComposite in2="hardAlpha" operator="out"/>
<feColorMatrix type="matrix" values="0 0 0 0 0.501961 0 0 0 0 0.470588 0 0 0 0 0.439216 0 0 0 1 0"/>
<feBlend mode="normal" in2="BackgroundImageFix" result="effect1_dropShadow_19_911"/>
<feColorMatrix in="SourceAlpha" type="matrix" values="0 0 0 0 0 0 0 0 0 0 0 0 0 0 0 0 0 0 127 0" result="hardAlpha"/>
<feOffset dx="2"/>
<feComposite in2="hardAlpha" operator="out"/>
<feColorMatrix type="matrix" values="0 0 0 0 0.501961 0 0 0 0 0.470588 0 0 0 0 0.439216 0 0 0 1 0"/>
<feBlend mode="normal" in2="effect1_dropShadow_19_911" result="effect2_dropShadow_19_911"/>
<feColorMatrix in="SourceAlpha" type="matrix" values="0 0 0 0 0 0 0 0 0 0 0 0 0 0 0 0 0 0 127 0" result="hardAlpha"/>
<feOffset dx="2" dy="2"/>
<feComposite in2="hardAlpha" operator="out"/>
<feColorMatrix type="matrix" values="0 0 0 0 0.501961 0 0 0 0 0.470588 0 0 0 0 0.439216 0 0 0 1 0"/>
<feBlend mode="normal" in2="effect2_dropShadow_19_911" result="effect3_dropShadow_19_911"/>
<feBlend mode="normal" in="SourceGraphic" in2="effect3_dropShadow_19_911" result="shape"/>
</filter>
<filter id="filter1_ddd_19_911" x="38" y="7" width="20" height="16" filterUnits="userSpaceOnUse" color-interpolation-filters="sRGB">
<feFlood flood-opacity="0" result="BackgroundImageFix"/>
<feColorMatrix in="SourceAlpha" type="matrix" values="0 0 0 0 0 0 0 0 0 0 0 0 0 0 0 0 0 0 127 0" result="hardAlpha"/>
<feOffset dy="2"/>
<feComposite in2="hardAlpha" operator="out"/>
<feColorMatrix type="matrix" values="0 0 0 0 0.501961 0 0 0 0 0.470588 0 0 0 0 0.439216 0 0 0 1 0"/>
<feBlend mode="normal" in2="BackgroundImageFix" result="effect1_dropShadow_19_911"/>
<feColorMatrix in="SourceAlpha" type="matrix" values="0 0 0 0 0 0 0 0 0 0 0 0 0 0 0 0 0 0 127 0" result="hardAlpha"/>
<feOffset dx="2"/>
<feComposite in2="hardAlpha" operator="out"/>
<feColorMatrix type="matrix" values="0 0 0 0 0.501961 0 0 0 0 0.470588 0 0 0 0 0.439216 0 0 0 1 0"/>
<feBlend mode="normal" in2="effect1_dropShadow_19_911" result="effect2_dropShadow_19_911"/>
<feColorMatrix in="SourceAlpha" type="matrix" values="0 0 0 0 0 0 0 0 0 0 0 0 0 0 0 0 0 0 127 0" result="hardAlpha"/>
<feOffset dx="2" dy="2"/>
<feComposite in2="hardAlpha" operator="out"/>
<feColorMatrix type="matrix" values="0 0 0 0 0.501961 0 0 0 0 0.470588 0 0 0 0 0.439216 0 0 0 1 0"/>
<feBlend mode="normal" in2="effect2_dropShadow_19_911" result="effect3_dropShadow_19_911"/>
<feBlend mode="normal" in="SourceGraphic" in2="effect3_dropShadow_19_911" result="shape"/>
</filter>
</defs>
</svg>
