<svg width="64" height="28" viewBox="0 0 64 28" fill="none" xmlns="http://www.w3.org/2000/svg">
<path d="M0 2V26H2V28H62V26H64V2H62V0H2V2H0Z" fill="#705898"/>
<g style="mix-blend-mode:hard-light">
<rect x="2" width="60" height="2" fill="white" fill-opacity="0.5"/>
<rect y="2" width="2" height="2" fill="white" fill-opacity="0.5"/>
<rect x="62" y="2" width="2" height="2" fill="white" fill-opacity="0.5"/>
</g>
<rect x="62" y="28" width="60" height="2" transform="rotate(180 62 28)" fill="black" fill-opacity="0.5"/>
<rect x="64" y="26" width="2" height="2" transform="rotate(180 64 26)" fill="black" fill-opacity="0.5"/>
<rect x="2" y="26" width="2" height="2" transform="rotate(180 2 26)" fill="black" fill-opacity="0.5"/>
<g filter="url(#filter0_ddd_19_910)">
<path d="M6 7H10V9H6V7Z" fill="white"/>
<path d="M4 9H6V13H4V9Z" fill="white"/>
<path d="M10 15H12V19H10V15Z" fill="white"/>
<path d="M10 9H12V11H10V9Z" fill="white"/>
<path d="M4 17H6V19H4V17Z" fill="white"/>
<path d="M6 13H10V15H6V13Z" fill="white"/>
<path d="M6 19H10V21H6V19Z" fill="white"/>
<path d="M16 7H20V9H16V7Z" fill="white"/>
<path d="M16 13H20V15H16V13Z" fill="white"/>
<path d="M20 9H22V13H20V9Z" fill="white"/>
<path d="M14 7H16V21H14V7Z" fill="white"/>
<path d="M34 9H36V19H34V9Z" fill="white"/>
<path d="M36 19H40V21H36V19Z" fill="white"/>
<path d="M36 7H40V9H36V7Z" fill="white"/>
<path d="M40 15H42V19H40V15Z" fill="white"/>
<path d="M40 9H42V11H40V9Z" fill="white"/>
</g>
<g filter="url(#filter1_ddd_19_910)">
<path d="M46 9H48V21H46V9Z" fill="white"/>
<path d="M44 7H50V9H44V7Z" fill="white"/>
<path d="M52 7H54V21H52V7Z" fill="white"/>
<path d="M58 15H60V21H58V15Z" fill="white"/>
<path d="M58 9H60V13H58V9Z" fill="white"/>
<path d="M54 7H58V9H54V7Z" fill="white"/>
<path d="M54 13H58V15H54V13Z" fill="white"/>
</g>
<g filter="url(#filter2_ddd_19_910)">
<path d="M24 13H30V15H24V13Z" fill="white"/>
<path d="M26 9L26 19H24L24 9L26 9Z" fill="white"/>
<path d="M24 19H32V21H24L24 19Z" fill="white"/>
<path d="M24 7H32V9L24 9L24 7Z" fill="white"/>
</g>
<defs>
<filter id="filter0_ddd_19_910" x="4" y="7" width="40" height="16" filterUnits="userSpaceOnUse" color-interpolation-filters="sRGB">
<feFlood flood-opacity="0" result="BackgroundImageFix"/>
<feColorMatrix in="SourceAlpha" type="matrix" values="0 0 0 0 0 0 0 0 0 0 0 0 0 0 0 0 0 0 127 0" result="hardAlpha"/>
<feOffset dy="2"/>
<feComposite in2="hardAlpha" operator="out"/>
<feColorMatrix type="matrix" values="0 0 0 0 0.501961 0 0 0 0 0.470588 0 0 0 0 0.439216 0 0 0 1 0"/>
<feBlend mode="normal" in2="BackgroundImageFix" result="effect1_dropShadow_19_910"/>
<feColorMatrix in="SourceAlpha" type="matrix" values="0 0 0 0 0 0 0 0 0 0 0 0 0 0 0 0 0 0 127 0" result="hardAlpha"/>
<feOffset dx="2"/>
<feComposite in2="hardAlpha" operator="out"/>
<feColorMatrix type="matrix" values="0 0 0 0 0.501961 0 0 0 0 0.470588 0 0 0 0 0.439216 0 0 0 1 0"/>
<feBlend mode="normal" in2="effect1_dropShadow_19_910" result="effect2_dropShadow_19_910"/>
<feColorMatrix in="SourceAlpha" type="matrix" values="0 0 0 0 0 0 0 0 0 0 0 0 0 0 0 0 0 0 127 0" result="hardAlpha"/>
<feOffset dx="2" dy="2"/>
<feComposite in2="hardAlpha" operator="out"/>
<feColorMatrix type="matrix" values="0 0 0 0 0.501961 0 0 0 0 0.470588 0 0 0 0 0.439216 0 0 0 1 0"/>
<feBlend mode="normal" in2="effect2_dropShadow_19_910" result="effect3_dropShadow_19_910"/>
<feBlend mode="normal" in="SourceGraphic" in2="effect3_dropShadow_19_910" result="shape"/>
</filter>
<filter id="filter1_ddd_19_910" x="44" y="7" width="18" height="16" filterUnits="userSpaceOnUse" color-interpolation-filters="sRGB">
<feFlood flood-opacity="0" result="BackgroundImageFix"/>
<feColorMatrix in="SourceAlpha" type="matrix" values="0 0 0 0 0 0 0 0 0 0 0 0 0 0 0 0 0 0 127 0" result="hardAlpha"/>
<feOffset dy="2"/>
<feComposite in2="hardAlpha" operator="out"/>
<feColorMatrix type="matrix" values="0 0 0 0 0.501961 0 0 0 0 0.470588 0 0 0 0 0.439216 0 0 0 1 0"/>
<feBlend mode="normal" in2="BackgroundImageFix" result="effect1_dropShadow_19_910"/>
<feColorMatrix in="SourceAlpha" type="matrix" values="0 0 0 0 0 0 0 0 0 0 0 0 0 0 0 0 0 0 127 0" result="hardAlpha"/>
<feOffset dx="2"/>
<feComposite in2="hardAlpha" operator="out"/>
<feColorMatrix type="matrix" values="0 0 0 0 0.501961 0 0 0 0 0.470588 0 0 0 0 0.439216 0 0 0 1 0"/>
<feBlend mode="normal" in2="effect1_dropShadow_19_910" result="effect2_dropShadow_19_910"/>
<feColorMatrix in="SourceAlpha" type="matrix" values="0 0 0 0 0 0 0 0 0 0 0 0 0 0 0 0 0 0 127 0" result="hardAlpha"/>
<feOffset dx="2" dy="2"/>
<feComposite in2="hardAlpha" operator="out"/>
<feColorMatrix type="matrix" values="0 0 0 0 0.501961 0 0 0 0 0.470588 0 0 0 0 0.439216 0 0 0 1 0"/>
<feBlend mode="normal" in2="effect2_dropShadow_19_910" result="effect3_dropShadow_19_910"/>
<feBlend mode="normal" in="SourceGraphic" in2="effect3_dropShadow_19_910" result="shape"/>
</filter>
<filter id="filter2_ddd_19_910" x="24" y="7" width="10" height="16" filterUnits="userSpaceOnUse" color-interpolation-filters="sRGB">
<feFlood flood-opacity="0" result="BackgroundImageFix"/>
<feColorMatrix in="SourceAlpha" type="matrix" values="0 0 0 0 0 0 0 0 0 0 0 0 0 0 0 0 0 0 127 0" result="hardAlpha"/>
<feOffset dy="2"/>
<feComposite in2="hardAlpha" operator="out"/>
<feColorMatrix type="matrix" values="0 0 0 0 0.501961 0 0 0 0 0.470588 0 0 0 0 0.439216 0 0 0 1 0"/>
<feBlend mode="normal" in2="BackgroundImageFix" result="effect1_dropShadow_19_910"/>
<feColorMatrix in="SourceAlpha" type="matrix" values="0 0 0 0 0 0 0 0 0 0 0 0 0 0 0 0 0 0 127 0" result="hardAlpha"/>
<feOffset dx="2"/>
<feComposite in2="hardAlpha" operator="out"/>
<feColorMatrix type="matrix" values="0 0 0 0 0.501961 0 0 0 0 0.470588 0 0 0 0 0.439216 0 0 0 1 0"/>
<feBlend mode="normal" in2="effect1_dropShadow_19_910" result="effect2_dropShadow_19_910"/>
<feColorMatrix in="SourceAlpha" type="matrix" values="0 0 0 0 0 0 0 0 0 0 0 0 0 0 0 0 0 0 127 0" result="hardAlpha"/>
<feOffset dx="2" dy="2"/>
<feComposite in2="hardAlpha" operator="out"/>
<feColorMatrix type="matrix" values="0 0 0 0 0.501961 0 0 0 0 0.470588 0 0 0 0 0.439216 0 0 0 1 0"/>
<feBlend mode="normal" in2="effect2_dropShadow_19_910" result="effect3_dropShadow_19_910"/>
<feBlend mode="normal" in="SourceGraphic" in2="effect3_dropShadow_19_910" result="shape"/>
</filter>
</defs>
</svg>
