<svg width="64" height="28" viewBox="0 0 64 28" fill="none" xmlns="http://www.w3.org/2000/svg">
<path d="M0 2V26H2V28H62V26H64V2H62V0H2V2H0Z" fill="#A8B820"/>
<g style="mix-blend-mode:hard-light">
<rect x="2" width="60" height="2" fill="white" fill-opacity="0.5"/>
<rect y="2" width="2" height="2" fill="white" fill-opacity="0.5"/>
<rect x="62" y="2" width="2" height="2" fill="white" fill-opacity="0.5"/>
</g>
<rect x="62" y="28" width="60" height="2" transform="rotate(180 62 28)" fill="black" fill-opacity="0.5"/>
<rect x="64" y="26" width="2" height="2" transform="rotate(180 64 26)" fill="black" fill-opacity="0.5"/>
<rect x="2" y="26" width="2" height="2" transform="rotate(180 2 26)" fill="black" fill-opacity="0.5"/>
<g filter="url(#filter0_ddd_19_912)">
<path d="M10 7H12V21H10V7Z" fill="white"/>
<path d="M10 7H14V9H10V7Z" fill="white"/>
<path d="M8 7H12V9H8V7Z" fill="white"/>
<path d="M8 19H12V21H8V19Z" fill="white"/>
<path d="M10 19H14V21H10V19Z" fill="white"/>
<path d="M46 9H48V19H46V9Z" fill="white"/>
<path d="M48 19H52V21H48V19Z" fill="white"/>
<path d="M48 7H52V9H48V7Z" fill="white"/>
<path d="M52 15H54V19H52V15Z" fill="white"/>
<path d="M52 9H54V11H52V9Z" fill="white"/>
</g>
<g filter="url(#filter1_ddd_19_912)">
<path d="M28 7H32V9H28V7Z" fill="white"/>
<path d="M26 9H28V13H26V9Z" fill="white"/>
<path d="M32 15H34V19H32V15Z" fill="white"/>
<path d="M32 9H34V11H32V9Z" fill="white"/>
<path d="M26 17H28V19H26V17Z" fill="white"/>
<path d="M28 13H32V15H28V13Z" fill="white"/>
<path d="M28 19H32V21H28V19Z" fill="white"/>
<path d="M36 13H42V15H36V13Z" fill="white"/>
<path d="M38 9L38 19H36L36 9L38 9Z" fill="white"/>
<path d="M36 19H44V21H36L36 19Z" fill="white"/>
<path d="M36 7H44V9L36 9L36 7Z" fill="white"/>
</g>
<g filter="url(#filter2_ddd_19_912)">
<path d="M16 7H18V21H16V7Z" fill="white"/>
<path d="M22 7H24V21H22V7Z" fill="white"/>
<path d="M18 9H20V13H18V9Z" fill="white"/>
<path d="M20 13H22V17H20V13Z" fill="white"/>
</g>
<defs>
<filter id="filter0_ddd_19_912" x="8" y="7" width="48" height="16" filterUnits="userSpaceOnUse" color-interpolation-filters="sRGB">
<feFlood flood-opacity="0" result="BackgroundImageFix"/>
<feColorMatrix in="SourceAlpha" type="matrix" values="0 0 0 0 0 0 0 0 0 0 0 0 0 0 0 0 0 0 127 0" result="hardAlpha"/>
<feOffset dy="2"/>
<feComposite in2="hardAlpha" operator="out"/>
<feColorMatrix type="matrix" values="0 0 0 0 0.501961 0 0 0 0 0.470588 0 0 0 0 0.439216 0 0 0 1 0"/>
<feBlend mode="normal" in2="BackgroundImageFix" result="effect1_dropShadow_19_912"/>
<feColorMatrix in="SourceAlpha" type="matrix" values="0 0 0 0 0 0 0 0 0 0 0 0 0 0 0 0 0 0 127 0" result="hardAlpha"/>
<feOffset dx="2"/>
<feComposite in2="hardAlpha" operator="out"/>
<feColorMatrix type="matrix" values="0 0 0 0 0.501961 0 0 0 0 0.470588 0 0 0 0 0.439216 0 0 0 1 0"/>
<feBlend mode="normal" in2="effect1_dropShadow_19_912" result="effect2_dropShadow_19_912"/>
<feColorMatrix in="SourceAlpha" type="matrix" values="0 0 0 0 0 0 0 0 0 0 0 0 0 0 0 0 0 0 127 0" result="hardAlpha"/>
<feOffset dx="2" dy="2"/>
<feComposite in2="hardAlpha" operator="out"/>
<feColorMatrix type="matrix" values="0 0 0 0 0.501961 0 0 0 0 0.470588 0 0 0 0 0.439216 0 0 0 1 0"/>
<feBlend mode="normal" in2="effect2_dropShadow_19_912" result="effect3_dropShadow_19_912"/>
<feBlend mode="normal" in="SourceGraphic" in2="effect3_dropShadow_19_912" result="shape"/>
</filter>
<filter id="filter1_ddd_19_912" x="26" y="7" width="20" height="16" filterUnits="userSpaceOnUse" color-interpolation-filters="sRGB">
<feFlood flood-opacity="0" result="BackgroundImageFix"/>
<feColorMatrix in="SourceAlpha" type="matrix" values="0 0 0 0 0 0 0 0 0 0 0 0 0 0 0 0 0 0 127 0" result="hardAlpha"/>
<feOffset dy="2"/>
<feComposite in2="hardAlpha" operator="out"/>
<feColorMatrix type="matrix" values="0 0 0 0 0.501961 0 0 0 0 0.470588 0 0 0 0 0.439216 0 0 0 1 0"/>
<feBlend mode="normal" in2="BackgroundImageFix" result="effect1_dropShadow_19_912"/>
<feColorMatrix in="SourceAlpha" type="matrix" values="0 0 0 0 0 0 0 0 0 0 0 0 0 0 0 0 0 0 127 0" result="hardAlpha"/>
<feOffset dx="2"/>
<feComposite in2="hardAlpha" operator="out"/>
<feColorMatrix type="matrix" values="0 0 0 0 0.501961 0 0 0 0 0.470588 0 0 0 0 0.439216 0 0 0 1 0"/>
<feBlend mode="normal" in2="effect1_dropShadow_19_912" result="effect2_dropShadow_19_912"/>
<feColorMatrix in="SourceAlpha" type="matrix" values="0 0 0 0 0 0 0 0 0 0 0 0 0 0 0 0 0 0 127 0" result="hardAlpha"/>
<feOffset dx="2" dy="2"/>
<feComposite in2="hardAlpha" operator="out"/>
<feColorMatrix type="matrix" values="0 0 0 0 0.501961 0 0 0 0 0.470588 0 0 0 0 0.439216 0 0 0 1 0"/>
<feBlend mode="normal" in2="effect2_dropShadow_19_912" result="effect3_dropShadow_19_912"/>
<feBlend mode="normal" in="SourceGraphic" in2="effect3_dropShadow_19_912" result="shape"/>
</filter>
<filter id="filter2_ddd_19_912" x="16" y="7" width="10" height="16" filterUnits="userSpaceOnUse" color-interpolation-filters="sRGB">
<feFlood flood-opacity="0" result="BackgroundImageFix"/>
<feColorMatrix in="SourceAlpha" type="matrix" values="0 0 0 0 0 0 0 0 0 0 0 0 0 0 0 0 0 0 127 0" result="hardAlpha"/>
<feOffset dy="2"/>
<feComposite in2="hardAlpha" operator="out"/>
<feColorMatrix type="matrix" values="0 0 0 0 0.501961 0 0 0 0 0.470588 0 0 0 0 0.439216 0 0 0 1 0"/>
<feBlend mode="normal" in2="BackgroundImageFix" result="effect1_dropShadow_19_912"/>
<feColorMatrix in="SourceAlpha" type="matrix" values="0 0 0 0 0 0 0 0 0 0 0 0 0 0 0 0 0 0 127 0" result="hardAlpha"/>
<feOffset dx="2"/>
<feComposite in2="hardAlpha" operator="out"/>
<feColorMatrix type="matrix" values="0 0 0 0 0.501961 0 0 0 0 0.470588 0 0 0 0 0.439216 0 0 0 1 0"/>
<feBlend mode="normal" in2="effect1_dropShadow_19_912" result="effect2_dropShadow_19_912"/>
<feColorMatrix in="SourceAlpha" type="matrix" values="0 0 0 0 0 0 0 0 0 0 0 0 0 0 0 0 0 0 127 0" result="hardAlpha"/>
<feOffset dx="2" dy="2"/>
<feComposite in2="hardAlpha" operator="out"/>
<feColorMatrix type="matrix" values="0 0 0 0 0.501961 0 0 0 0 0.470588 0 0 0 0 0.439216 0 0 0 1 0"/>
<feBlend mode="normal" in2="effect2_dropShadow_19_912" result="effect3_dropShadow_19_912"/>
<feBlend mode="normal" in="SourceGraphic" in2="effect3_dropShadow_19_912" result="shape"/>
</filter>
</defs>
</svg>
