<svg width="64" height="28" viewBox="0 0 64 28" fill="none" xmlns="http://www.w3.org/2000/svg">
<path d="M0 2V26H2V28H62V26H64V2H62V0H2V2H0Z" fill="#A040A0"/>
<g style="mix-blend-mode:hard-light">
<rect x="2" width="60" height="2" fill="white" fill-opacity="0.5"/>
<rect y="2" width="2" height="2" fill="white" fill-opacity="0.5"/>
<rect x="62" y="2" width="2" height="2" fill="white" fill-opacity="0.5"/>
</g>
<rect x="62" y="28" width="60" height="2" transform="rotate(180 62 28)" fill="black" fill-opacity="0.5"/>
<rect x="64" y="26" width="2" height="2" transform="rotate(180 64 26)" fill="black" fill-opacity="0.5"/>
<rect x="2" y="26" width="2" height="2" transform="rotate(180 2 26)" fill="black" fill-opacity="0.5"/>
<path d="M0 2V26H2V28H62V26H64V2H62V0H2V2H0Z" fill="#B8B8D0"/>
<g style="mix-blend-mode:hard-light">
<rect x="2" width="60" height="2" fill="#D8D8C0"/>
<rect y="2" width="2" height="2" fill="#D8D8C0"/>
<rect x="62" y="2" width="2" height="2" fill="#D8D8C0"/>
</g>
<rect x="62" y="28" width="60" height="2" transform="rotate(180 62 28)" fill="#807870"/>
<rect x="64" y="26" width="2" height="2" transform="rotate(180 64 26)" fill="#807870"/>
<rect x="2" y="26" width="2" height="2" transform="rotate(180 2 26)" fill="#807870"/>
<g filter="url(#filter0_ddd_19_906)">
<path d="M37 13H43V15H37V13Z" fill="white"/>
<path d="M39 9L39 19H37L37 9L39 9Z" fill="white"/>
<path d="M37 19H45V21H37L37 19Z" fill="white"/>
<path d="M37 7H45V9L37 9L37 7Z" fill="white"/>
<path d="M15 9H17V21H15V9Z" fill="white"/>
<path d="M9 9H11V21H9V9Z" fill="white"/>
<path d="M11 7H15V9H11V7Z" fill="white"/>
<path d="M11 13H15V15H11V13Z" fill="white"/>
<path d="M47 7H49V21H47V7Z" fill="white"/>
<path d="M53 15H55V21H53V15Z" fill="white"/>
<path d="M53 9H55V13H53V9Z" fill="white"/>
<path d="M49 7H53V9H49V7Z" fill="white"/>
<path d="M49 13H53V15H49V13Z" fill="white"/>
</g>
<g filter="url(#filter1_ddd_19_906)">
<path d="M31 7H33V21H31V7Z" fill="white"/>
<path d="M31 7H35V9H31V7Z" fill="white"/>
<path d="M29 7H33V9H29V7Z" fill="white"/>
<path d="M29 19H33V21H29V19Z" fill="white"/>
<path d="M31 19H35V21H31V19Z" fill="white"/>
<path d="M19 9H21V19H19V9Z" fill="white"/>
<path d="M21 19H25V21H21V19Z" fill="white"/>
<path d="M21 7H25V9H21V7Z" fill="white"/>
<path d="M25 15H27V19H25V15Z" fill="white"/>
<path d="M25 9H27V11H25V9Z" fill="white"/>
</g>
<defs>
<filter id="filter0_ddd_19_906" x="9" y="7" width="48" height="16" filterUnits="userSpaceOnUse" color-interpolation-filters="sRGB">
<feFlood flood-opacity="0" result="BackgroundImageFix"/>
<feColorMatrix in="SourceAlpha" type="matrix" values="0 0 0 0 0 0 0 0 0 0 0 0 0 0 0 0 0 0 127 0" result="hardAlpha"/>
<feOffset dy="2"/>
<feComposite in2="hardAlpha" operator="out"/>
<feColorMatrix type="matrix" values="0 0 0 0 0.501961 0 0 0 0 0.470588 0 0 0 0 0.439216 0 0 0 1 0"/>
<feBlend mode="normal" in2="BackgroundImageFix" result="effect1_dropShadow_19_906"/>
<feColorMatrix in="SourceAlpha" type="matrix" values="0 0 0 0 0 0 0 0 0 0 0 0 0 0 0 0 0 0 127 0" result="hardAlpha"/>
<feOffset dx="2"/>
<feComposite in2="hardAlpha" operator="out"/>
<feColorMatrix type="matrix" values="0 0 0 0 0.501961 0 0 0 0 0.470588 0 0 0 0 0.439216 0 0 0 1 0"/>
<feBlend mode="normal" in2="effect1_dropShadow_19_906" result="effect2_dropShadow_19_906"/>
<feColorMatrix in="SourceAlpha" type="matrix" values="0 0 0 0 0 0 0 0 0 0 0 0 0 0 0 0 0 0 127 0" result="hardAlpha"/>
<feOffset dx="2" dy="2"/>
<feComposite in2="hardAlpha" operator="out"/>
<feColorMatrix type="matrix" values="0 0 0 0 0.501961 0 0 0 0 0.470588 0 0 0 0 0.439216 0 0 0 1 0"/>
<feBlend mode="normal" in2="effect2_dropShadow_19_906" result="effect3_dropShadow_19_906"/>
<feBlend mode="normal" in="SourceGraphic" in2="effect3_dropShadow_19_906" result="shape"/>
</filter>
<filter id="filter1_ddd_19_906" x="19" y="7" width="18" height="16" filterUnits="userSpaceOnUse" color-interpolation-filters="sRGB">
<feFlood flood-opacity="0" result="BackgroundImageFix"/>
<feColorMatrix in="SourceAlpha" type="matrix" values="0 0 0 0 0 0 0 0 0 0 0 0 0 0 0 0 0 0 127 0" result="hardAlpha"/>
<feOffset dy="2"/>
<feComposite in2="hardAlpha" operator="out"/>
<feColorMatrix type="matrix" values="0 0 0 0 0.501961 0 0 0 0 0.470588 0 0 0 0 0.439216 0 0 0 1 0"/>
<feBlend mode="normal" in2="BackgroundImageFix" result="effect1_dropShadow_19_906"/>
<feColorMatrix in="SourceAlpha" type="matrix" values="0 0 0 0 0 0 0 0 0 0 0 0 0 0 0 0 0 0 127 0" result="hardAlpha"/>
<feOffset dx="2"/>
<feComposite in2="hardAlpha" operator="out"/>
<feColorMatrix type="matrix" values="0 0 0 0 0.501961 0 0 0 0 0.470588 0 0 0 0 0.439216 0 0 0 1 0"/>
<feBlend mode="normal" in2="effect1_dropShadow_19_906" result="effect2_dropShadow_19_906"/>
<feColorMatrix in="SourceAlpha" type="matrix" values="0 0 0 0 0 0 0 0 0 0 0 0 0 0 0 0 0 0 127 0" result="hardAlpha"/>
<feOffset dx="2" dy="2"/>
<feComposite in2="hardAlpha" operator="out"/>
<feColorMatrix type="matrix" values="0 0 0 0 0.501961 0 0 0 0 0.470588 0 0 0 0 0.439216 0 0 0 1 0"/>
<feBlend mode="normal" in2="effect2_dropShadow_19_906" result="effect3_dropShadow_19_906"/>
<feBlend mode="normal" in="SourceGraphic" in2="effect3_dropShadow_19_906" result="shape"/>
</filter>
</defs>
</svg>
